<svg id="receipt" xmlns="http://www.w3.org/2000/svg" width="97.102" height="155.461" viewBox="0 0 97.102 155.461">
  <path id="Path_103" data-name="Path 103" d="M85.462,9.384C79.393,9.384,79.393,0,73.324,0S67.255,9.384,61.185,9.384,55.116,0,49.047,0,42.979,9.384,36.91,9.384,30.842,0,24.773,0,18.7,9.384,12.637,9.384c-4.438,0-5.63-5.021-8.325-7.717A2.242,2.242,0,0,0,.5,3.274V152.188a2.243,2.243,0,0,0,3.812,1.607c2.694-2.7,3.887-7.717,8.325-7.717,6.068,0,6.068,9.383,12.136,9.383s6.069-9.383,12.137-9.383,6.069,9.383,12.137,9.383,6.069-9.383,12.138-9.383,6.069,9.383,12.138,9.383,6.069-9.383,12.138-9.383c4.441,0,5.633,5.021,8.327,7.717a2.242,2.242,0,0,0,3.812-1.606V3.274A2.243,2.243,0,0,0,93.79,1.666c-2.695,2.7-3.887,7.718-8.327,7.718Zm0,0" transform="translate(-0.499)" fill="#eeedee"/>
  <path id="Path_104" data-name="Path 104" d="M268.421,11.716c-2.453,0-3.915-1.534-5.187-3.361V151.771c1.272-1.828,2.733-3.361,5.187-3.361,4.441,0,5.633,5.022,8.328,7.718a2.243,2.243,0,0,0,3.812-1.607V5.6A2.243,2.243,0,0,0,276.748,4c-2.695,2.7-3.887,7.718-8.328,7.718Zm0,0" transform="translate(-183.458 -2.331)" fill="#d6d5d6"/>
  <g id="Group_65" data-name="Group 65" transform="translate(9.451 24.304)">
    <path id="Path_105" data-name="Path 105" d="M73.5,209.742H33.3a1.677,1.677,0,0,1-1.677-1.677v-6.4a1.677,1.677,0,0,1,1.677-1.677H73.5a1.677,1.677,0,0,1,1.677,1.677v6.4A1.677,1.677,0,0,1,73.5,209.742Zm0,0" transform="translate(-31.625 -163.568)" fill="#68a1d7"/>
    <path id="Path_106" data-name="Path 106" d="M216.842,409.586h-24.48a2.9,2.9,0,0,1-2.9-2.9v-3.958a2.9,2.9,0,0,1,2.9-2.9h24.48a2.9,2.9,0,0,1,2.9,2.9v3.958A2.9,2.9,0,0,1,216.842,409.586Zm0,0" transform="translate(-141.539 -302.732)" fill="#68a1d7"/>
    <path id="Path_107" data-name="Path 107" d="M31.625,81.771v6.3A1.728,1.728,0,0,0,33.353,89.8H108.1a1.728,1.728,0,0,0,1.728-1.728v-6.3a1.728,1.728,0,0,0-1.728-1.728H33.353A1.728,1.728,0,0,0,31.625,81.771Zm0,0" transform="translate(-31.625 -80.043)" fill="#68a1d7"/>
  </g>
  <path id="Path_108" data-name="Path 108" d="M104.445,145.461h-78.2a2.345,2.345,0,1,0,0,4.691h78.2a2.345,2.345,0,1,0,0-4.691Zm0,0" transform="translate(-16.794 -101.294)" fill="#f94530"/>
  <path id="Path_109" data-name="Path 109" d="M54.623,268.335a2.346,2.346,0,0,0-2.346-2.346H26.248a2.346,2.346,0,0,0,0,4.692H52.277A2.345,2.345,0,0,0,54.623,268.335Zm0,0" transform="translate(-16.796 -185.224)" fill="#5c5c5c"/>
  <path id="Path_110" data-name="Path 110" d="M48.021,304.965H26.249a2.346,2.346,0,1,0,0,4.692H48.021a2.346,2.346,0,1,0,0-4.692Zm0,0" transform="translate(-16.796 -212.366)" fill="#5c5c5c"/>
  <path id="Path_111" data-name="Path 111" d="M48.021,343.941H26.249a2.345,2.345,0,1,0,0,4.691H48.021a2.345,2.345,0,1,0,0-4.691Zm0,0" transform="translate(-16.796 -239.508)" fill="#5c5c5c"/>
  <path id="Path_112" data-name="Path 112" d="M258.826,343.941H247.939a2.346,2.346,0,0,0,0,4.692h10.887a2.346,2.346,0,0,0,0-4.692Zm0,0" transform="translate(-171.174 -239.508)" fill="#68a1d7"/>
  <path id="Path_113" data-name="Path 113" d="M258.826,304.965H247.939a2.346,2.346,0,0,0,0,4.692h10.887a2.346,2.346,0,1,0,0-4.692Zm0,0" transform="translate(-171.174 -212.366)" fill="#68a1d7"/>
  <path id="Path_114" data-name="Path 114" d="M258.826,265.988H247.939a2.346,2.346,0,0,0,0,4.692h10.887a2.346,2.346,0,1,0,0-4.692Zm0,0" transform="translate(-171.174 -185.224)" fill="#68a1d7"/>
</svg>
