<svg xmlns="http://www.w3.org/2000/svg" xmlns:xlink="http://www.w3.org/1999/xlink" width="800" height="450" viewBox="0 0 1044 489"><defs><filter id="a" x="114" y="0" width="818" height="489" filterUnits="userSpaceOnUse"><feOffset dx="6" dy="6" input="SourceAlpha"/><feGaussianBlur stdDeviation="5" result="b"/><feFlood flood-opacity="0.161"/><feComposite operator="in" in2="b"/><feComposite in="SourceGraphic"/></filter></defs><g transform="translate(-4463 -4859.299)"><g transform="translate(4463 4867.839)"><rect width="236" height="227" rx="10" transform="translate(0 103.46)" fill="#373239"/><rect width="236" height="227" rx="10" transform="translate(808 95.46)" fill="#373239"/><path d="M10103.682,383.587s180.465,37.685,371.834,37.685,393.645-37.685,393.645-37.685V477.8s-202.273,43.247-393.645,43.247-371.834-43.247-371.834-43.247Z" transform="translate(-9857.303 -235.286)" fill="#e6c014" stroke="#e6c014" stroke-width="40"/><path d="M27.995,16.756,0,0V21.1Z" transform="matrix(1, -0.017, 0.017, 1, 909.97, 240.612)" fill="#ab8f12"/><path d="M10103.682,383.587s180.465,37.685,371.834,37.685,393.645-37.685,393.645-37.685V477.8s-202.273,43.247-393.645,43.247-371.834-43.247-371.834-43.247Z" transform="translate(-10070.682 -229.76)" fill="#e6c014" stroke="#e6c014" stroke-width="40"/><path d="M28.743,4.677.748,21.433,0,0Z" transform="matrix(-0.999, -0.035, 0.035, -0.999, 124.767, 261.847)" fill="#ab8f12"/><g transform="matrix(1, 0, 0, 1, 0, -8.54)" filter="url(#a)"><rect width="788" height="459" rx="10" transform="translate(123 9)" fill="#373239"/></g><g transform="translate(310.181 110.297)"><text transform="translate(210.819 73.163)" fill="#fff" font-size="45" font-family="Vazir-Medium-FD, Vazir FD"><tspan x="-288.666" y="0">پرداخت شما با موفقیت انجام شد</tspan></text></g></g><path d="M10103.885,383.02s188.92,37.946,389.473,37.946,412.535-37.685,412.535-37.685v94.213l-97.758,16.8s-199.459,26.446-314.777,26.446c-200.553,0-389.677-43.247-389.677-43.247Z" transform="translate(-5525.302 4765.134)" fill="#f3ce28" stroke="#f3ce28" stroke-width="40"/><path d="M10103.682,525.659s198.337,46.2,408.657,46.2,432.627-42.576,432.627-42.576v25.162s-222.3,43.247-432.627,43.247-408.657-43.247-408.657-43.247Z" transform="translate(-5544.389 4683.933)" fill="none"/><text transform="translate(4979 5210.299)" fill="#373239" font-size="28" font-family="Vazir-Medium-FD, Vazir FD"><tspan x="-190.183" y="0">اوقات خوشی را برای شما آرزومندیم</tspan></text><text transform="translate(4984 5266.299)" fill="#373239" font-size="28" font-family="Vazir-Medium-FD, Vazir FD"><tspan x="-88.238" y="0">*</tspan><tspan y="0">چالیدره مشهد</tspan><tspan y="0">*</tspan></text></g></svg>